<?xml version="1.0" encoding="UTF-8" standalone="no"?>
<!DOCTYPE svg PUBLIC "-//W3C//DTD SVG 1.1//EN" "http://www.w3.org/Graphics/SVG/1.1/DTD/svg11.dtd">
<svg xmlns="http://www.w3.org/2000/svg" xmlns:xlink="http://www.w3.org/1999/xlink" version="1.1" width="5236.1667pt" height="1388.4277pt" viewBox="0 0 5236.1667 1388.4277">
<g enable-background="new">
<g id="Layer-1" data-name="Layer">
<clipPath id="cp0">
<path transform="matrix(2.7777777,0,0,-2.7777777,0,1388.4277)" d="M 0 499.834 L 1885.018 499.834 L 1885.018 0 L 0 0 Z "/>
</clipPath>
<g clip-path="url(#cp0)">
<path transform="matrix(2.7777777,0,0,-2.7777777,609.12667,.0014411078)" d="M 0 0 C 96.61 0 178.955 -53.599 208.045 -127.625 L -27.396 -127.625 L -127.178 -338.261 C -182.865 -304.385 -219.286 -248.944 -219.286 -186.495 C -219.286 -83.774 -120.778 0 0 0 " fill="#333738" fill-rule="evenodd"/>
<path transform="matrix(2.7777777,0,0,-2.7777777,1212.8063,449.05479)" d="M 0 0 C 1.282 -8.129 1.958 -16.42 1.958 -24.836 C 1.958 -127.554 -96.547 -211.328 -217.325 -211.328 C -233.91 -211.328 -250.061 -209.739 -265.603 -206.747 L -208.618 -76.574 C -196.59 -49.101 -213.293 -22.304 -242.6 0 Z " fill="#f9b428" fill-rule="evenodd"/>
<path transform="matrix(2.7777777,0,0,-2.7777777,2654.953,190.56397)" d="M 0 0 L -69.499 -280.178 L 20.635 -281.263 L 79.274 -34.749 L 191.132 -34.749 C 206.188 -34.749 214.43 -60.12 211.764 -74.929 C 208.72 -91.816 190.903 -117.823 163.979 -117.823 L 81.713 -117.823 L 170.497 -280.178 L 271.494 -280.178 L 199.818 -152.036 C 246.503 -145.277 293.887 -109.981 296.471 -60.783 C 297.717 -37.014 273.279 0 232.128 0 Z M 616.565 0 L 448.182 0 C 390.981 0 318.988 -57.916 305.816 -112.94 L 296.717 -150.947 C 277.761 -230.143 327.27 -281.263 377.378 -281.263 L 547.875 -281.263 L 557.041 -246.786 L 415.978 -246.786 L 415.978 -246.487 C 382.763 -245.542 377.046 -184.169 385.563 -150.82 L 578.868 -150.82 L 587.399 -116.901 L 394.641 -116.901 L 395.993 -111.855 C 406.553 -72.449 453.049 -35.836 493.467 -35.836 L 607.554 -35.836 C 610.558 -23.891 613.565 -11.946 616.565 0 M 929.235 0 L 760.852 0 C 703.65 0 631.657 -57.916 618.489 -112.94 L 609.387 -150.947 C 590.43 -230.143 639.937 -281.263 690.048 -281.263 L 860.545 -281.263 L 869.714 -246.786 L 728.645 -246.786 L 728.645 -246.487 C 695.432 -245.542 689.716 -184.169 698.234 -150.82 L 891.538 -150.82 L 900.065 -116.901 L 707.314 -116.901 L 708.666 -111.855 C 719.223 -72.449 765.716 -35.836 806.138 -35.836 L 920.224 -35.836 C 923.231 -23.891 926.232 -11.946 929.235 0 M -43.979 0 L -261.172 0 C -318.373 0 -390.369 -57.916 -403.536 -112.94 L -412.637 -150.947 C -431.596 -230.143 -382.087 -281.263 -331.979 -281.263 L -161.479 -281.263 C -134.328 -281.263 -104.837 -248.129 -98.315 -221.536 L -71.147 -110.766 L -221.052 -111.855 L -242.14 -150.947 L -173.726 -150.947 C -162.452 -150.947 -168.098 -173.827 -171.792 -184.614 L -184.062 -220.45 C -188.085 -232.207 -198.866 -246.515 -211.152 -246.515 L -292.601 -246.515 C -326.835 -246.515 -332.486 -183.239 -323.545 -149.862 L -313.359 -111.855 C -302.801 -72.449 -256.308 -35.836 -215.886 -35.836 L -52.993 -35.836 C -49.986 -23.891 -46.982 -11.946 -43.979 0 " fill="#333738" fill-rule="evenodd"/>
<path transform="matrix(2.7777777,0,0,-2.7777777,2424.4925,1146.7733)" d="M 0 0 L 12.481 0 L 23.145 -46.284 C 24.235 -51.01 25.084 -57.793 25.084 -57.793 L 25.325 -57.793 C 25.325 -57.793 28.961 -51.13 31.868 -46.284 L 60.586 0 L 73.43 0 L 63.615 -85.543 L 51.86 -85.543 L 58.283 -31.625 C 58.89 -26.414 60.464 -19.02 60.464 -19.02 L 60.221 -19.02 C 60.221 -19.02 56.103 -27.019 53.194 -31.625 L 28.719 -70.154 L 17.935 -70.154 L 8.363 -31.625 C 7.271 -27.019 6.181 -18.78 6.181 -18.78 L 5.937 -18.78 C 5.937 -18.78 4.849 -26.414 3.395 -31.625 L -11.389 -85.543 L -23.384 -85.543 Z " fill="#333738"/>
<path transform="matrix(2.7777777,0,0,-2.7777777,2788.4005,1288.4683)" d="M 0 0 L -4.24 27.14 C -4.846 31.505 -5.451 39.26 -5.451 39.26 L -5.692 39.26 C -5.692 39.26 -8.966 31.505 -11.269 27.14 L -26.052 0 Z M -57.191 -34.533 L -10.298 51.01 L 3.029 51.01 L 16.966 -34.533 L 4.967 -34.533 L 1.212 -9.937 L -31.019 -9.937 L -44.346 -34.533 Z " fill="#333738"/>
<path transform="matrix(2.7777777,0,0,-2.7777777,3015.2967,1142.7286)" d="M 0 0 C 20.722 0 30.654 -10.178 30.654 -10.178 L 23.385 -18.539 C 23.385 -18.539 15.024 -11.028 .241 -11.028 C -22.293 -11.028 -38.894 -30.292 -38.894 -51.496 C -38.894 -67.49 -28.23 -77.427 -13.327 -77.427 C 1.697 -77.427 13.207 -66.158 13.207 -66.158 L 15.51 -54.404 L 1.697 -54.404 L 3.635 -43.985 L 28.476 -43.985 L 20.115 -87 L 9.693 -87 L 10.664 -81.667 C 11.028 -79.85 11.511 -78.033 11.511 -78.033 L 11.27 -78.033 C 11.27 -78.033 1.092 -88.452 -15.389 -88.452 C -35.624 -88.452 -51.374 -74.034 -51.374 -52.105 C -51.374 -23.87 -27.869 0 0 0 " fill="#333738"/>
<path transform="matrix(2.7777777,0,0,-2.7777777,3189.7054,1283.7539)" d="M 0 0 L -18.903 49.313 L -6.058 49.313 L 4.24 21.202 C 5.937 16.477 7.39 10.419 7.39 10.419 L 7.635 10.419 C 7.635 10.419 11.27 16.235 14.904 21.082 L 35.865 49.313 L 50.284 49.313 L 11.755 -.365 L 4.726 -36.23 L -7.148 -36.23 Z " fill="#333738"/>
<path transform="matrix(2.7777777,0,0,-2.7777777,3433.0838,1288.4683)" d="M 0 0 L -4.24 27.14 C -4.846 31.505 -5.452 39.26 -5.452 39.26 L -5.692 39.26 C -5.692 39.26 -8.966 31.505 -11.269 27.14 L -26.052 0 Z M -57.191 -34.533 L -10.298 51.01 L 3.029 51.01 L 16.966 -34.533 L 4.967 -34.533 L 1.212 -9.937 L -31.019 -9.937 L -44.346 -34.533 Z " fill="#333738"/>
<path transform="matrix(2.7777777,0,0,-2.7777777,3617.9117,1260.8641)" d="M 0 0 C 10.423 0 19.024 7.51 19.024 19.265 C 19.024 26.413 14.298 30.654 6.303 30.654 L -10.903 30.654 L -16.841 0 Z M -20.717 41.073 L 8.364 41.073 C 12.966 41.073 17.086 40.467 20.48 38.894 C 27.265 35.741 31.384 29.322 31.384 20.962 C 31.384 8.36 23.63 -3.639 10.788 -7.273 L 10.788 -7.514 C 10.788 -7.514 11.394 -8.726 12.36 -11.394 L 24.235 -44.471 L 11.514 -44.471 L -.24 -10.423 L -18.899 -10.423 L -25.442 -44.471 L -37.438 -44.471 Z " fill="#333738"/>
<path transform="matrix(2.7777777,0,0,-2.7777777,3839.7596,1357.8045)" d="M 0 0 C 19.145 0 38.653 18.178 38.653 40.471 C 38.653 55.735 27.99 66.399 12.722 66.399 C -6.787 66.399 -25.932 48.711 -25.932 26.778 C -25.932 11.028 -15.269 0 0 0 M 12.842 77.427 C 35.745 77.427 51.01 62.279 51.01 41.076 C 51.01 12.846 25.687 -11.024 -.12 -11.024 C -23.023 -11.024 -38.168 4.605 -38.168 26.293 C -38.168 54.043 -13.206 77.427 12.842 77.427 " fill="#333738"/>
<path transform="matrix(2.7777777,0,0,-2.7777777,4108.401,1260.8641)" d="M 0 0 C 10.423 0 19.023 7.51 19.023 19.265 C 19.023 26.413 14.298 30.654 6.303 30.654 L -10.904 30.654 L -16.842 0 Z M -20.717 41.073 L 8.36 41.073 C 12.966 41.073 17.086 40.467 20.479 38.894 C 27.264 35.741 31.384 29.322 31.384 20.962 C 31.384 8.36 23.629 -3.639 10.787 -7.273 L 10.787 -7.514 C 10.787 -7.514 11.394 -8.726 12.36 -11.394 L 24.235 -44.471 L 11.514 -44.471 L -.241 -10.423 L -18.899 -10.423 L -25.442 -44.471 L -37.438 -44.471 Z " fill="#333738"/>
<path transform="matrix(2.7777777,0,0,-2.7777777,4228.2717,1333.5667)" d="M 0 0 C 0 0 7.394 -8.605 20.841 -8.605 C 29.202 -8.605 38.288 -3.273 38.288 6.178 C 38.288 21.202 3.879 20.355 3.879 43.135 C 3.879 57.433 17.692 68.702 34.293 68.702 C 51.134 68.702 58.889 59.977 58.889 59.977 L 52.104 51.13 C 52.104 51.13 45.317 57.553 34.168 57.553 C 24.114 57.553 15.875 50.524 15.875 43.135 C 15.875 29.201 50.528 29.928 50.528 6.178 C 50.528 -7.635 37.807 -19.75 20.601 -19.75 C 1.456 -19.75 -7.51 -8.484 -7.51 -8.484 Z " fill="#333738"/>
<path transform="matrix(2.7777777,0,0,-2.7777777,4388.862,1362.1828)" d="M 0 0 L 51.74 59.374 C 55.98 64.22 59.495 67.249 59.495 67.249 L 59.495 67.493 C 59.495 67.493 57.313 67.129 53.192 67.129 L 15.145 67.129 L 17.207 77.547 L 77.183 77.547 L 75.61 69.672 L 23.75 10.178 C 19.51 5.331 15.995 2.423 15.995 2.423 L 15.995 2.182 C 15.995 2.182 18.174 2.423 22.294 2.423 L 62.885 2.423 L 60.947 -7.996 L -1.576 -7.996 Z " fill="#333738"/>
<path transform="matrix(2.7777777,0,0,-2.7777777,4746.6877,1087.5338)" d="M 0 0 L 13.207 0 L -1.336 -15.389 L -11.875 -15.389 Z M -3.88 -72.336 L -8.12 -45.197 C -8.726 -40.832 -9.331 -33.077 -9.331 -33.077 L -9.572 -33.077 C -9.572 -33.077 -12.846 -40.832 -15.148 -45.197 L -29.932 -72.336 Z M -61.071 -106.87 L -14.178 -21.326 L -.851 -21.326 L 13.086 -106.87 L 1.087 -106.87 L -2.668 -82.273 L -34.898 -82.273 L -48.226 -106.87 Z " fill="#333738"/>
<path transform="matrix(2.7777777,0,0,-2.7777777,4962.806,1142.7286)" d="M 0 0 C 20.721 0 30.654 -10.178 30.654 -10.178 L 23.385 -18.539 C 23.385 -18.539 15.024 -11.028 .241 -11.028 C -22.293 -11.028 -38.894 -30.292 -38.894 -51.496 C -38.894 -67.49 -28.23 -77.427 -13.327 -77.427 C 1.697 -77.427 13.207 -66.158 13.207 -66.158 L 15.51 -54.404 L 1.697 -54.404 L 3.635 -43.985 L 28.476 -43.985 L 20.115 -87 L 9.693 -87 L 10.664 -81.667 C 11.028 -79.85 11.511 -78.033 11.511 -78.033 L 11.27 -78.033 C 11.27 -78.033 1.092 -88.452 -15.389 -88.452 C -35.624 -88.452 -51.374 -74.034 -51.374 -52.105 C -51.374 -23.87 -27.869 0 0 0 " fill="#333738"/>
</g>
</g>
</g>
</svg>
